<svg width="22" height="20" viewBox="0 0 22 20" fill="none" xmlns="http://www.w3.org/2000/svg">
<path d="M14.9839 19.4147V3.41473C14.9839 2.8843 14.7732 2.37559 14.3981 2.00052C14.023 1.62545 13.5143 1.41473 12.9839 1.41473H8.98389C8.45345 1.41473 7.94475 1.62545 7.56967 2.00052C7.1946 2.37559 6.98389 2.8843 6.98389 3.41473V19.4147M2.98389 5.41473H18.9839C20.0885 5.41473 20.9839 6.31016 20.9839 7.41473V17.4147C20.9839 18.5193 20.0885 19.4147 18.9839 19.4147H2.98389C1.87932 19.4147 0.983887 18.5193 0.983887 17.4147V7.41473C0.983887 6.31016 1.87932 5.41473 2.98389 5.41473Z" stroke="#999999" stroke-linecap="round" stroke-linejoin="round"/>
</svg>
