<svg width="12" height="14" viewBox="0 0 12 14" fill="none" xmlns="http://www.w3.org/2000/svg">
<path fill-rule="evenodd" clip-rule="evenodd" d="M6.24988 0.333527C7.75388 0.333527 9.09655 1.28886 9.58921 2.71153C9.67988 2.97219 9.54121 3.25686 9.27988 3.34753C9.01921 3.43886 8.73455 3.29953 8.64388 3.03819C8.29121 2.01886 7.32788 1.33353 6.24788 1.33353H6.23855C4.84388 1.33353 3.70788 2.46286 3.70188 3.85619L3.70141 4.75086L8.78941 4.75133C10.4587 4.75133 11.8174 6.10999 11.8174 7.77999V10.6387C11.8174 12.3087 10.4587 13.6673 8.78941 13.6673H3.69475C2.02475 13.6673 0.666748 12.3087 0.666748 10.6387V7.77999C0.666748 6.45773 1.51808 5.33065 2.70156 4.9186L2.70188 3.86753C2.71055 1.90886 4.29455 0.333527 6.23655 0.333527H6.24988ZM8.78941 5.75133H3.69475C2.57608 5.75133 1.66675 6.66133 1.66675 7.77999V10.6387C1.66675 11.7573 2.57608 12.6673 3.69475 12.6673H8.78941C9.90741 12.6673 10.8174 11.7573 10.8174 10.6387V7.77999C10.8174 6.66133 9.90741 5.75133 8.78941 5.75133ZM6.24228 7.96853C6.51828 7.96853 6.74228 8.19253 6.74228 8.46853V9.94986C6.74228 10.2259 6.51828 10.4499 6.24228 10.4499C5.96628 10.4499 5.74228 10.2259 5.74228 9.94986V8.46853C5.74228 8.19253 5.96628 7.96853 6.24228 7.96853Z" fill="#1D2D3A"/>
</svg>
