<svg width="13" height="14" viewBox="0 0 13 14" fill="none" xmlns="http://www.w3.org/2000/svg">
<path fill-rule="evenodd" clip-rule="evenodd" d="M8.60576 0.333344C10.7018 0.333344 12.1098 1.76868 12.1098 3.90468V10.0353C12.1098 12.19 10.7451 13.5913 8.63309 13.6047L3.50442 13.6067C1.40842 13.6067 -0.000244141 12.1713 -0.000244141 10.0353V3.90468C-0.000244141 1.74934 1.36442 0.348677 3.47642 0.33601L8.60509 0.333344H8.60576ZM8.60576 1.33334L3.47976 1.33601C1.92776 1.34534 0.999756 2.30534 0.999756 3.90468V10.0353C0.999756 11.6453 1.93642 12.6067 3.50376 12.6067L8.62976 12.6047C10.1818 12.5953 11.1098 11.634 11.1098 10.0353V3.90468C11.1098 2.29468 10.1738 1.33334 8.60576 1.33334ZM8.47716 9.31581C8.75316 9.31581 8.97716 9.53981 8.97716 9.81581C8.97716 10.0918 8.75316 10.3158 8.47716 10.3158H3.66382C3.38782 10.3158 3.16382 10.0918 3.16382 9.81581C3.16382 9.53981 3.38782 9.31581 3.66382 9.31581H8.47716ZM8.47716 6.52481C8.75316 6.52481 8.97716 6.74881 8.97716 7.02481C8.97716 7.30081 8.75316 7.52481 8.47716 7.52481H3.66382C3.38782 7.52481 3.16382 7.30081 3.16382 7.02481C3.16382 6.74881 3.38782 6.52481 3.66382 6.52481H8.47716ZM5.50029 3.74028C5.77629 3.74028 6.00029 3.96428 6.00029 4.24028C6.00029 4.51628 5.77629 4.74028 5.50029 4.74028H3.66362C3.38762 4.74028 3.16362 4.51628 3.16362 4.24028C3.16362 3.96428 3.38762 3.74028 3.66362 3.74028H5.50029Z" fill="#1D2D3A"/>
</svg>
