<svg width="14" height="14" viewBox="0 0 14 14" fill="none" xmlns="http://www.w3.org/2000/svg">
<path fill-rule="evenodd" clip-rule="evenodd" d="M6.6615 0.357812C6.9375 0.357812 7.1615 0.581812 7.1615 0.857812C7.1615 1.13381 6.9375 1.35781 6.6615 1.35781H4.16883C2.44616 1.35781 1.3335 2.53781 1.3335 4.36381V9.90648C1.3335 11.7325 2.44616 12.9125 4.16883 12.9125H10.0515C11.7742 12.9125 12.8875 11.7325 12.8875 9.90648V7.22115C12.8875 6.94515 13.1115 6.72115 13.3875 6.72115C13.6635 6.72115 13.8875 6.94515 13.8875 7.22115V9.90648C13.8875 12.3025 12.3455 13.9125 10.0515 13.9125H4.16883C1.87483 13.9125 0.333496 12.3025 0.333496 9.90648V4.36381C0.333496 1.96781 1.87483 0.357812 4.16883 0.357812H6.6615ZM12.4679 0.943546L13.2792 1.75488C13.6746 2.14955 13.8919 2.67421 13.8912 3.23288C13.8912 3.79155 13.6739 4.31555 13.2792 4.70955L8.27323 9.71555C7.9059 10.0829 7.41656 10.2855 6.89656 10.2855H4.39923C4.26456 10.2855 4.13523 10.2309 4.04123 10.1342C3.94723 10.0382 3.8959 9.90821 3.89923 9.77288L3.9619 7.25355C3.97456 6.75221 4.17656 6.28088 4.53123 5.92555H4.5319L9.5139 0.943546C10.3286 0.130212 11.6532 0.130212 12.4679 0.943546ZM9.1035 2.76755L5.23856 6.63288C5.0659 6.80555 4.9679 7.03488 4.9619 7.27821L4.9119 9.28555H6.89656C7.1499 9.28555 7.38723 9.18755 7.56656 9.00821L11.4548 5.11888L9.1035 2.76755ZM10.2206 1.65088L9.81016 2.06021L12.1615 4.41221L12.5726 4.00221C12.7779 3.79688 12.8912 3.52355 12.8912 3.23288C12.8912 2.94155 12.7779 2.66755 12.5726 2.46221L11.7612 1.65088C11.3366 1.22755 10.6459 1.22755 10.2206 1.65088Z" fill="#1D2D3A"/>
</svg>
