<svg width="14" height="14" viewBox="0 0 14 14" fill="none" xmlns="http://www.w3.org/2000/svg">
<path fill-rule="evenodd" clip-rule="evenodd" d="M9.88925 0.333313C12.1486 0.333313 13.6666 1.91865 13.6666 4.27731V9.72265C13.6666 12.0813 12.1486 13.6666 9.88792 13.6666H4.10925C1.85059 13.6666 0.333252 12.0813 0.333252 9.72265V4.27731C0.333252 1.91865 1.85059 0.333313 4.10925 0.333313H9.88925ZM9.88925 1.33331H4.10925C2.42325 1.33331 1.33325 2.48865 1.33325 4.27731V9.72265C1.33325 11.5113 2.42325 12.6666 4.10925 12.6666H9.88792C11.5759 12.6666 12.6666 11.5113 12.6666 9.72265V4.27731C12.6666 2.48865 11.5759 1.33331 9.88925 1.33331ZM6.99592 6.49998C7.27192 6.49998 7.49592 6.72398 7.49592 6.99998V9.66665C7.49592 9.94265 7.27192 10.1666 6.99592 10.1666C6.71992 10.1666 6.49592 9.94265 6.49592 9.66665V6.99998C6.49592 6.72398 6.71992 6.49998 6.99592 6.49998ZM6.99919 3.80271C7.36785 3.80271 7.66585 4.10071 7.66585 4.46938C7.66585 4.83805 7.36785 5.13605 6.99919 5.13605C6.63052 5.13605 6.32919 4.83805 6.32919 4.46938C6.32919 4.10071 6.62452 3.80271 6.99252 3.80271H6.99919Z" fill="#1D2D3A"/>
</svg>
