<svg width="15" height="15" viewBox="0 0 15 15" fill="none" xmlns="http://www.w3.org/2000/svg">
<path fill-rule="evenodd" clip-rule="evenodd" d="M10.9574 0.666656C13.3754 0.666656 15.0001 2.36399 15.0001 4.88999V10.7767C15.0001 13.3027 13.3754 15 10.9574 15H4.70941C2.29141 15 0.666748 13.3027 0.666748 10.7767V4.88999C0.666748 2.36399 2.29141 0.666656 4.70941 0.666656H10.9574ZM10.9574 1.66666H4.70941C2.86141 1.66666 1.66675 2.93132 1.66675 4.88999V10.7767C1.66675 12.7353 2.86141 14 4.70941 14H10.9574C12.8061 14 14.0001 12.7353 14.0001 10.7767V4.88999C14.0001 2.93132 12.8061 1.66666 10.9574 1.66666ZM4.74748 6.13499C5.02348 6.13499 5.24748 6.35899 5.24748 6.63499V11.2083C5.24748 11.4843 5.02348 11.7083 4.74748 11.7083C4.47148 11.7083 4.24748 11.4843 4.24748 11.2083V6.63499C4.24748 6.35899 4.47148 6.13499 4.74748 6.13499ZM7.85881 3.94566C8.13481 3.94566 8.35881 4.16966 8.35881 4.44566V11.2077C8.35881 11.4837 8.13481 11.7077 7.85881 11.7077C7.58281 11.7077 7.35881 11.4837 7.35881 11.2077V4.44566C7.35881 4.16966 7.58281 3.94566 7.85881 3.94566ZM10.919 8.55166C11.195 8.55166 11.419 8.77566 11.419 9.05166V11.2077C11.419 11.4837 11.195 11.7077 10.919 11.7077C10.643 11.7077 10.419 11.4837 10.419 11.2077V9.05166C10.419 8.77566 10.643 8.55166 10.919 8.55166Z" fill="#1D2D3A"/>
</svg>
