<svg width="15" height="13" viewBox="0 0 15 13" fill="none" xmlns="http://www.w3.org/2000/svg">
<path fill-rule="evenodd" clip-rule="evenodd" d="M10.0946 0C12.2993 0 14.0926 1.79333 14.0926 3.99867V8.78333C14.0926 10.988 12.2993 12.782 10.0946 12.782H4.33192C2.12725 12.782 0.333252 10.988 0.333252 8.78333V3.99867C0.333252 1.79333 2.12725 0 4.33192 0H10.0946ZM10.0946 1H4.33192C2.67859 1 1.33325 2.34533 1.33325 3.99867V8.78333C1.33325 10.4367 2.67859 11.782 4.33192 11.782H10.0946C11.7479 11.782 13.0926 10.4367 13.0926 8.78333V8.59667L10.894 8.59707C9.62932 8.59707 8.59999 7.5684 8.59932 6.3044C8.59932 5.03907 9.62865 4.00973 10.894 4.00907L13.0926 4.00867V3.99867C13.0926 2.34533 11.7479 1 10.0946 1ZM13.0926 5.00867L10.894 5.00907C10.18 5.00973 9.59932 5.5904 9.59932 6.30373C9.59932 7.0164 10.1807 7.59707 10.894 7.59707L13.0926 7.59667V5.00867ZM11.1991 5.7624C11.4751 5.7624 11.6991 5.9864 11.6991 6.2624C11.6991 6.5384 11.4751 6.7624 11.1991 6.7624H10.9911C10.7151 6.7624 10.4911 6.5384 10.4911 6.2624C10.4911 5.9864 10.7151 5.7624 10.9911 5.7624H11.1991ZM7.45658 3.0254C7.73258 3.0254 7.95658 3.2494 7.95658 3.5254C7.95658 3.8014 7.73258 4.0254 7.45658 4.0254H3.85725C3.58125 4.0254 3.35725 3.8014 3.35725 3.5254C3.35725 3.2494 3.58125 3.0254 3.85725 3.0254H7.45658Z" fill="#1D2D3A"/>
</svg>
