<svg width="13" height="15" viewBox="0 0 13 15" fill="none" xmlns="http://www.w3.org/2000/svg">
<path fill-rule="evenodd" clip-rule="evenodd" d="M4.88282 13.404C5.22815 13.7887 5.67148 14 6.13148 14H6.13215C6.59415 14 7.03948 13.7887 7.38548 13.4033C7.57082 13.1987 7.88682 13.182 8.09148 13.3667C8.29682 13.5513 8.31349 13.868 8.12882 14.0727C7.59015 14.6707 6.88148 15 6.13215 15H6.13082C5.38348 14.9993 4.67615 14.67 4.13948 14.072C3.95482 13.8673 3.97148 13.5507 4.17682 13.3667C4.38215 13.1813 4.69815 13.198 4.88282 13.404ZM6.16468 0.666672C9.12802 0.666672 11.1187 2.97467 11.1187 5.13C11.1187 6.23867 11.4007 6.70867 11.7 7.20734C11.996 7.69934 12.3314 8.258 12.3314 9.314C12.0987 12.012 9.28202 12.232 6.16468 12.232C3.04735 12.232 0.230018 12.012 8.82422e-06 9.35667C-0.00198227 8.258 0.333351 7.69934 0.629351 7.20734L0.733847 7.03144C0.991134 6.58924 1.21068 6.10824 1.21068 5.13C1.21068 2.97467 3.20135 0.666672 6.16468 0.666672ZM6.16468 1.66667C3.83468 1.66667 2.21068 3.49201 2.21068 5.13C2.21068 6.51601 1.82602 7.15667 1.48602 7.722C1.21335 8.176 0.998018 8.53467 0.998018 9.314C1.10935 10.5713 1.93935 11.232 6.16468 11.232C10.3667 11.232 11.2227 10.542 11.3334 9.27067C11.3314 8.53467 11.116 8.176 10.8434 7.722C10.5034 7.15667 10.1187 6.51601 10.1187 5.13C10.1187 3.49201 8.49468 1.66667 6.16468 1.66667Z" fill="#1D2D3A"/>
</svg>
