<svg width="14" height="13" viewBox="0 0 14 13" fill="none" xmlns="http://www.w3.org/2000/svg">
<path fill-rule="evenodd" clip-rule="evenodd" d="M6.8332 1C6.77253 1 6.6232 1.01667 6.54386 1.17533L5.32653 3.60933C5.13386 3.994 4.76253 4.26133 4.3332 4.32267L1.60786 4.71533C1.42786 4.74133 1.36653 4.87467 1.34786 4.93067C1.3312 4.98467 1.30453 5.122 1.42853 5.24067L3.3992 7.134C3.7132 7.436 3.85586 7.87133 3.7812 8.29733L3.3172 10.9707C3.28853 11.138 3.3932 11.2353 3.43986 11.2687C3.4892 11.306 3.6212 11.38 3.78453 11.2947L6.2212 10.0313C6.6052 9.83333 7.06253 9.83333 7.4452 10.0313L9.8812 11.294C10.0452 11.3787 10.1772 11.3047 10.2272 11.2687C10.2739 11.2353 10.3785 11.138 10.3499 10.9707L9.88453 8.29733C9.80986 7.87133 9.95253 7.436 10.2665 7.134L12.2372 5.24067C12.3619 5.122 12.3352 4.984 12.3179 4.93067C12.2999 4.87467 12.2385 4.74133 12.0585 4.71533L9.3332 4.32267C8.90453 4.26133 8.5332 3.994 8.34053 3.60867L7.12186 1.17533C7.0432 1.01667 6.89386 1 6.8332 1ZM3.6312 12.3333C3.35586 12.3333 3.08253 12.2467 2.84853 12.076C2.44453 11.78 2.24653 11.2913 2.33253 10.7993L2.79653 8.126C2.81386 8.02667 2.77986 7.926 2.70653 7.85533L0.735863 5.962C0.373196 5.61467 0.243196 5.10133 0.396529 4.62467C0.551196 4.14267 0.960529 3.798 1.4652 3.726L4.19053 3.33333C4.29586 3.31867 4.38653 3.254 4.43186 3.162L5.64986 0.727333C5.87453 0.278667 6.32786 0 6.8332 0C7.33853 0 7.79186 0.278667 8.01653 0.727333L9.2352 3.16133C9.2812 3.254 9.3712 3.31867 9.47586 3.33333L12.2012 3.726C12.7059 3.798 13.1152 4.14267 13.2699 4.62467C13.4232 5.10133 13.2925 5.61467 12.9299 5.962L10.9592 7.85533C10.8859 7.926 10.8525 8.02667 10.8699 8.12533L11.3345 10.7993C11.4199 11.292 11.2219 11.7807 10.8172 12.076C10.4072 12.3767 9.8732 12.4173 9.42053 12.1813L6.9852 10.9193C6.88986 10.87 6.77586 10.87 6.68053 10.9193L4.2452 12.182C4.05053 12.2833 3.84053 12.3333 3.6312 12.3333Z" fill="#1D2D3A"/>
</svg>
