<svg width="203" height="76" viewBox="0 0 203 76" fill="none" xmlns="http://www.w3.org/2000/svg">
<g clip-path="url(#clip0_0_5873)">
<path d="M43.4784 21.308V59H35.9185V34.484L25.8204 59H20.0964L9.94445 34.484V59H2.38445V21.308H10.9704L22.9584 49.334L34.9464 21.308H43.4784ZM78.7628 43.394C78.7628 44.474 78.6908 45.446 78.5468 46.31H56.6768C56.8568 48.47 57.6128 50.162 58.9448 51.386C60.2768 52.61 61.9148 53.222 63.8588 53.222C66.6668 53.222 68.6648 52.016 69.8528 49.604H78.0068C77.1428 52.484 75.4868 54.86 73.0388 56.732C70.5908 58.568 67.5848 59.486 64.0208 59.486C61.1408 59.486 58.5488 58.856 56.2448 57.596C53.9768 56.3 52.1948 54.482 50.8988 52.142C49.6388 49.802 49.0088 47.102 49.0088 44.042C49.0088 40.946 49.6388 38.228 50.8988 35.888C52.1588 33.548 53.9228 31.748 56.1908 30.488C58.4588 29.228 61.0688 28.598 64.0208 28.598C66.8648 28.598 69.4028 29.21 71.6348 30.434C73.9028 31.658 75.6488 33.404 76.8728 35.672C78.1328 37.904 78.7628 40.478 78.7628 43.394ZM70.9328 41.234C70.8968 39.29 70.1948 37.742 68.8268 36.59C67.4588 35.402 65.7848 34.808 63.8048 34.808C61.9328 34.808 60.3488 35.384 59.0528 36.536C57.7928 37.652 57.0188 39.218 56.7308 41.234H70.9328ZM112.091 43.394C112.091 44.474 112.019 45.446 111.875 46.31H90.0049C90.1849 48.47 90.9409 50.162 92.2729 51.386C93.6049 52.61 95.2429 53.222 97.1869 53.222C99.9949 53.222 101.993 52.016 103.181 49.604H111.335C110.471 52.484 108.815 54.86 106.367 56.732C103.919 58.568 100.913 59.486 97.3489 59.486C94.4689 59.486 91.8769 58.856 89.5729 57.596C87.3049 56.3 85.5229 54.482 84.2269 52.142C82.9669 49.802 82.3369 47.102 82.3369 44.042C82.3369 40.946 82.9669 38.228 84.2269 35.888C85.4869 33.548 87.2509 31.748 89.5189 30.488C91.7869 29.228 94.3969 28.598 97.3489 28.598C100.193 28.598 102.731 29.21 104.963 30.434C107.231 31.658 108.977 33.404 110.201 35.672C111.461 37.904 112.091 40.478 112.091 43.394ZM104.261 41.234C104.225 39.29 103.523 37.742 102.155 36.59C100.787 35.402 99.1129 34.808 97.1329 34.808C95.2609 34.808 93.6769 35.384 92.3809 36.536C91.1209 37.652 90.3469 39.218 90.0589 41.234H104.261ZM126.411 35.294V49.766C126.411 50.774 126.645 51.512 127.113 51.98C127.617 52.412 128.445 52.628 129.597 52.628H133.107V59H128.355C121.983 59 118.797 55.904 118.797 49.712V35.294H115.233V29.084H118.797V21.686H126.411V29.084H133.107V35.294H126.411ZM145.997 21.308V44.636C145.997 47.192 146.663 49.154 147.995 50.522C149.327 51.854 151.199 52.52 153.611 52.52C156.059 52.52 157.949 51.854 159.281 50.522C160.613 49.154 161.279 47.192 161.279 44.636V21.308H168.893V44.582C168.893 47.786 168.191 50.504 166.787 52.736C165.419 54.932 163.565 56.588 161.225 57.704C158.921 58.82 156.347 59.378 153.503 59.378C150.695 59.378 148.139 58.82 145.835 57.704C143.567 56.588 141.767 54.932 140.435 52.736C139.103 50.504 138.437 47.786 138.437 44.582V21.308H145.997ZM187.645 59.486C185.197 59.486 183.001 59.054 181.057 58.19C179.113 57.29 177.565 56.084 176.413 54.572C175.297 53.06 174.685 51.386 174.577 49.55H182.191C182.335 50.702 182.893 51.656 183.865 52.412C184.873 53.168 186.115 53.546 187.591 53.546C189.031 53.546 190.147 53.258 190.939 52.682C191.767 52.106 192.181 51.368 192.181 50.468C192.181 49.496 191.677 48.776 190.669 48.308C189.697 47.804 188.131 47.264 185.971 46.688C183.739 46.148 181.903 45.59 180.463 45.014C179.059 44.438 177.835 43.556 176.791 42.368C175.783 41.18 175.279 39.578 175.279 37.562C175.279 35.906 175.747 34.394 176.683 33.026C177.655 31.658 179.023 30.578 180.787 29.786C182.587 28.994 184.693 28.598 187.105 28.598C190.669 28.598 193.513 29.498 195.637 31.298C197.761 33.062 198.931 35.456 199.147 38.48H191.911C191.803 37.292 191.299 36.356 190.399 35.672C189.535 34.952 188.365 34.592 186.889 34.592C185.521 34.592 184.459 34.844 183.703 35.348C182.983 35.852 182.623 36.554 182.623 37.454C182.623 38.462 183.127 39.236 184.135 39.776C185.143 40.28 186.709 40.802 188.833 41.342C190.993 41.882 192.775 42.44 194.179 43.016C195.583 43.592 196.789 44.492 197.797 45.716C198.841 46.904 199.381 48.488 199.417 50.468C199.417 52.196 198.931 53.744 197.959 55.112C197.023 56.48 195.655 57.56 193.855 58.352C192.091 59.108 190.021 59.486 187.645 59.486Z" fill="white"/>
<rect x="138" y="64.5926" width="64.1681" height="64.1681" rx="5" transform="rotate(-5 138 64.5926)" fill="white"/>
</g>
<defs>
<clipPath id="clip0_0_5873">
<rect width="203" height="76" fill="white"/>
</clipPath>
</defs>
</svg>
